<?xml version="1.0" standalone="no"?>
<!DOCTYPE svg PUBLIC "-//W3C//DTD SVG 20010904//EN"
 "http://www.w3.org/TR/2001/REC-SVG-20010904/DTD/svg10.dtd">
<svg version="1.0" xmlns="http://www.w3.org/2000/svg"
 width="754.000000pt" height="680.000000pt" viewBox="0 0 754.000000 680.000000"
 preserveAspectRatio="xMidYMid meet">

<g transform="translate(0.000000,680.000000) scale(0.100000,-0.100000)"
fill="#1c1c1c" stroke="none">
<path d="M131 6496 c-10 -12 21 -73 161 -315 l173 -301 661 0 661 0 532 -922
c293 -508 738 -1279 989 -1715 368 -638 461 -792 477 -793 17 0 84 110 358
584 216 374 335 590 331 600 -5 14 -43 16 -338 16 l-333 0 -824 1428 -824
1427 -1006 3 c-861 2 -1008 0 -1018 -12z"/>
<path d="M2772 6493 c-7 -14 137 -272 658 -1173 l667 -1155 642 -3 c352 -1
641 -4 641 -6 0 -12 -1587 -2749 -1594 -2748 -5 0 -523 891 -1151 1979 l-1142
1978 -346 3 c-325 2 -347 1 -356 -16 -8 -15 270 -502 1462 -2567 810 -1403
1486 -2574 1503 -2603 l30 -53 706 1223 c388 673 1207 2091 1820 3153 613
1062 1120 1940 1126 1952 7 12 9 29 6 37 -6 15 -44 16 -356 14 l-350 -3 -494
-855 -493 -855 -640 -3 -641 -2 -24 37 c-27 42 -606 1044 -606 1050 0 1 438 3
973 3 l973 0 172 299 c113 195 170 304 166 315 -6 15 -136 16 -1675 16 -1579
0 -1669 -1 -1677 -17z"/>
</g>
</svg>
